<svg width="50" height="50" viewBox="0 0 50 50" fill="none" xmlns="http://www.w3.org/2000/svg">
<g clip-path="url(#clip0_41_4318)">
<rect width="50" height="50" fill="black"/>
<rect width="10" height="10" fill="#BD0094"/>
<rect x="20" width="10" height="10" fill="#BD0094"/>
<rect x="40" width="10" height="10" fill="#BD0094"/>
<rect x="10" y="10" width="10" height="10" fill="#BD0094"/>
<rect x="30" y="10" width="10" height="10" fill="#BD0094"/>
<rect y="20" width="10" height="10" fill="#BD0094"/>
<rect x="20" y="20" width="10" height="10" fill="#BD0094"/>
<rect x="40" y="20" width="10" height="10" fill="#BD0094"/>
<rect y="40" width="10" height="10" fill="#BD0094"/>
<rect x="20" y="40" width="10" height="10" fill="#BD0094"/>
<rect x="40" y="40" width="10" height="10" fill="#BD0094"/>
<rect x="10" y="30" width="10" height="10" fill="#BD0094"/>
<rect x="30" y="30" width="10" height="10" fill="#BD0094"/>
<path d="M0.539773 36.0625V14.4915H7.2642V17.2017H4.05114V33.3438H7.2642V36.0625H0.539773ZM9.33736 34V16.5455H16.2237C17.5476 16.5455 18.6754 16.7983 19.6072 17.304C20.5391 17.804 21.2493 18.5 21.7379 19.392C22.2322 20.2784 22.4794 21.3011 22.4794 22.4602C22.4794 23.6193 22.2294 24.642 21.7294 25.5284C21.2294 26.4148 20.505 27.1051 19.5561 27.5994C18.6129 28.0937 17.4709 28.3409 16.13 28.3409H11.7408V25.3835H15.5334C16.2436 25.3835 16.8288 25.2614 17.2891 25.017C17.755 24.767 18.1016 24.4233 18.3288 23.9858C18.5618 23.5426 18.6783 23.0341 18.6783 22.4602C18.6783 21.8807 18.5618 21.375 18.3288 20.9432C18.1016 20.5057 17.755 20.1676 17.2891 19.929C16.8232 19.6847 16.2322 19.5625 15.5163 19.5625H13.0277V34H9.33736ZM24.8764 34V16.5455H28.5668V23.7472H36.0582V16.5455H39.7401V34H36.0582V26.7898H28.5668V34H24.8764ZM48.544 14.4915V36.0625H41.8196V33.3438H45.0327V17.2017H41.8196V14.4915H48.544Z" fill="white"/>
</g>
<defs>
<clipPath id="clip0_41_4318">
<rect width="50" height="50" fill="white"/>
</clipPath>
</defs>
</svg>
